<svg id="Layer_1" data-name="Layer 1" xmlns="http://www.w3.org/2000/svg" width="70" height="70" viewBox="0 0 70 70"><defs><style>.cls-1{fill:#3b3d3f;}</style></defs><path class="cls-1" d="M35,70A30.2,30.2,0,0,1,4.8,39.8V0H65.2V39.8A30.2,30.2,0,0,1,35,70ZM9.9,39.8a25.1,25.1,0,1,0,50.2,0V5.1H9.9Z"/><path class="cls-1" d="M32.2,44.5h-.8l-.3-.2-.4-.3h-.1l-12-9.5a2.6,2.6,0,0,1-.9-1.7,2.6,2.6,0,0,1,.5-1.9,2.5,2.5,0,0,1,2-.9,3,3,0,0,1,1.6.5l10.1,8.2L49.6,18.6a2.7,2.7,0,0,1,3.6-.2,2.5,2.5,0,0,1,.8,1.8,3,3,0,0,1-.6,1.8L34.2,43.6l-.6.5H32.2Z"/></svg>