<svg id="Layer_1" data-name="Layer 1" xmlns="http://www.w3.org/2000/svg" width="70" height="70" viewBox="0 0 70 70"><defs><style>.cls-1{fill:#3b3d3f;}</style></defs><path class="cls-1" d="M52.6,69.1a2.4,2.4,0,0,1-1.8-.9L41.1,54.9a25.6,25.6,0,0,1-6.2.7,24,24,0,0,1-6-.7L19.2,68.2a2.4,2.4,0,0,1-1.8.9H17a2.1,2.1,0,0,1-1.7-1.6L12.8,57.3l-10.5.6H2.2A2,2,0,0,1,.3,56.8a2.1,2.1,0,0,1,.1-2.3L10.5,40.7a28.3,28.3,0,0,1-3-12.4A27.4,27.4,0,1,1,59.3,40.5l10.3,14a2.1,2.1,0,0,1,.1,2.3,2,2,0,0,1-1.9,1.1h-.1l-10.5-.6L54.7,67.4A2.1,2.1,0,0,1,53,69Zm-1-7.1,1.9-7.5a2.1,2.1,0,0,1,2.1-1.6h.1l7.7.4-6.5-8.9a26.3,26.3,0,0,1-11.5,9.1ZM14.4,52.9a2.1,2.1,0,0,1,2.1,1.6L18.4,62l6.1-8.4a27.4,27.4,0,0,1-11.5-9L6.6,53.3l7.7-.4ZM34.9,5.2a23.1,23.1,0,1,0,23,23.1A23.1,23.1,0,0,0,34.9,5.2Z"/><path class="cls-1" d="M34.9,41.7A13.5,13.5,0,1,1,48.3,28.3,13.4,13.4,0,0,1,34.9,41.7Zm0-22.5A9.1,9.1,0,1,0,44,28.3,9.1,9.1,0,0,0,34.9,19.2Z"/></svg>