<svg id="Layer_1" data-name="Layer 1" xmlns="http://www.w3.org/2000/svg" width="70" height="70" viewBox="0 0 70 70"><defs><style>.cls-1{fill:#3b3d3f;}</style></defs><path class="cls-1" d="M56.4,61a8.1,8.1,0,0,1-7.9-6.1H21A8.1,8.1,0,0,1,13.1,61a8.1,8.1,0,0,1-7.9-6.1h-3A2.2,2.2,0,0,1,0,52.7V19.5A10.5,10.5,0,0,1,10.6,9H37A10.6,10.6,0,0,1,47.6,19.5v2.2h11A11.5,11.5,0,0,1,70,33.2V52.7a2.2,2.2,0,0,1-2.2,2.2H64.3A8.1,8.1,0,0,1,56.4,61Zm0-11.9a3.8,3.8,0,1,0,3.8,4v-.6A3.7,3.7,0,0,0,56.4,49.1Zm-43.3,0a3.8,3.8,0,1,0,3.8,3.8A3.8,3.8,0,0,0,13.1,49.1Zm52.5,1.4V33.2a7,7,0,0,0-7-7.1h-11V50.5h1a8.2,8.2,0,0,1,7.8-5.8,8.4,8.4,0,0,1,7.9,5.8Zm-22.4,0V40H4.4V50.5h.9a8.1,8.1,0,0,1,15.6,0Zm0-14.9V19.5A6.2,6.2,0,0,0,37,13.3H10.6a6.2,6.2,0,0,0-6.2,6.2V35.6Z"/></svg>